<svg xmlns="http://www.w3.org/2000/svg" width="18" height="18" viewBox="0 0 18 18" fill="none">
  <path d="M13.7609 13.8984C14.0803 13.6549 14.1419 13.1985 13.8984 12.8791C13.6549 12.5597 13.1986 12.4981 12.8791 12.7416L13.7609 13.8984ZM9 14.8182L9 15.5455L9.01189 15.5453L9 14.8182ZM1 8.99998L0.359159 8.65611C0.247426 8.86433 0.243826 9.11386 0.349507 9.32523L1 8.99998ZM5.12138 5.258C5.44061 5.01423 5.50179 4.55783 5.25802 4.2386C5.01425 3.91937 4.55785 3.85819 4.23862 4.10196L5.12138 5.258ZM7.30697 2.64821C6.91588 2.73976 6.67305 3.13101 6.7646 3.5221C6.85614 3.91319 7.24739 4.15602 7.63848 4.06448L7.30697 2.64821ZM9 3.1818L8.99829 3.90907H9V3.1818ZM17 8.99998L17.6414 9.34283C17.7526 9.13478 17.756 8.88573 17.6505 8.67473L17 8.99998ZM14.8726 10.8517C14.614 11.1591 14.6535 11.6178 14.9608 11.8765C15.2682 12.1351 15.727 12.0956 15.9856 11.7882L14.8726 10.8517ZM11.0739 11.0376C11.3477 10.7437 11.3315 10.2835 11.0376 10.0097C10.7438 9.7359 10.2836 9.75214 10.0097 10.046L11.0739 11.0376ZM7.95398 7.99024C8.24784 7.71642 8.26408 7.25622 7.99026 6.96236C7.71644 6.6685 7.25624 6.65226 6.96238 6.92608L7.95398 7.99024ZM12.8791 12.7416C11.7594 13.5951 10.3959 14.068 8.98811 14.091L9.01189 15.5453C10.7301 15.5172 12.3942 14.9401 13.7609 13.8984L12.8791 12.7416ZM9 14.0909C6.7451 14.0909 4.92401 12.801 3.62148 11.4117C2.97685 10.7241 2.48032 10.0337 2.14503 9.51451C1.97784 9.25563 1.85192 9.04117 1.76882 8.89343C1.72729 8.8196 1.69653 8.76258 1.67673 8.72516C1.66684 8.70646 1.65968 8.69267 1.6553 8.68414C1.65311 8.67988 1.65161 8.67694 1.65081 8.67535C1.65041 8.67456 1.65018 8.67411 1.65013 8.67401C1.6501 8.67395 1.65012 8.67399 1.65018 8.67411C1.65021 8.67417 1.65029 8.67433 1.6503 8.67436C1.65039 8.67453 1.65049 8.67473 1 8.99998C0.349507 9.32523 0.34963 9.32547 0.349764 9.32574C0.349823 9.32586 0.349968 9.32615 0.350087 9.32638C0.350326 9.32686 0.350609 9.32742 0.350937 9.32808C0.351594 9.32938 0.352431 9.33104 0.353447 9.33304C0.35548 9.33705 0.358232 9.34245 0.3617 9.3492C0.368636 9.36269 0.378441 9.38157 0.391093 9.40548C0.416393 9.45329 0.453108 9.52127 0.50107 9.60653C0.59694 9.77697 0.738073 10.0171 0.923153 10.3036C1.29241 10.8754 1.84133 11.6395 2.56034 12.4065C3.98508 13.9262 6.16399 15.5454 9 15.5454V14.0909ZM1.64084 9.34385C2.49646 7.74934 3.68317 6.35623 5.12138 5.258L4.23862 4.10196C2.63557 5.32607 1.31284 6.87884 0.359159 8.65611L1.64084 9.34385ZM7.63848 4.06448C8.0842 3.96015 8.54053 3.90799 8.99829 3.90907L9.00171 2.45453C8.4312 2.45319 7.86247 2.51819 7.30697 2.64821L7.63848 4.06448ZM9 3.90907C11.2549 3.90907 13.076 5.19893 14.3785 6.5883C15.0232 7.27591 15.5197 7.9663 15.855 8.48545C16.0222 8.74433 16.1481 8.95879 16.2312 9.10653C16.2727 9.18036 16.3035 9.23738 16.3233 9.2748C16.3332 9.2935 16.3403 9.30729 16.3447 9.31582C16.3469 9.32008 16.3484 9.32303 16.3492 9.32461C16.3496 9.3254 16.3498 9.32585 16.3499 9.32596C16.3499 9.32601 16.3499 9.32597 16.3498 9.32585C16.3498 9.32579 16.3497 9.32564 16.3497 9.32561C16.3496 9.32543 16.3495 9.32523 17 8.99998C17.6505 8.67473 17.6504 8.67449 17.6502 8.67422C17.6502 8.6741 17.65 8.67381 17.6499 8.67358C17.6497 8.6731 17.6494 8.67254 17.6491 8.67189C17.6484 8.67058 17.6476 8.66892 17.6466 8.66692C17.6445 8.66291 17.6418 8.65751 17.6383 8.65076C17.6314 8.63727 17.6216 8.61839 17.6089 8.59448C17.5836 8.54667 17.5469 8.47869 17.4989 8.39343C17.4031 8.22299 17.2619 7.9829 17.0768 7.69633C16.7076 7.12457 16.1587 6.36041 15.4397 5.59348C14.0149 4.07376 11.836 2.45453 9 2.45453V3.90907ZM16.3586 8.65714C15.941 9.43839 15.443 10.1739 14.8726 10.8517L15.9856 11.7882C16.6211 11.0329 17.1761 10.2134 17.6414 9.34283L16.3586 8.65714ZM10.0097 10.046C9.64713 10.4351 9.10102 10.5953 8.58566 10.4637L8.22575 11.873C9.25647 12.1363 10.3487 11.8159 11.0739 11.0376L10.0097 10.046ZM8.58566 10.4637C8.0703 10.3321 7.66788 9.92968 7.53626 9.41432L6.12695 9.77423C6.39018 10.805 7.19502 11.6098 8.22575 11.873L8.58566 10.4637ZM7.53626 9.41432C7.40465 8.89896 7.56483 8.35285 7.95398 7.99024L6.96238 6.92608C6.18409 7.6513 5.86372 8.74351 6.12695 9.77423L7.53626 9.41432Z" fill="#5D698D"/>
  <path d="M1 1L17 17" stroke="#5D698D" stroke-width="1.45455" stroke-linecap="round" stroke-linejoin="round"/>
</svg>